<?xml version="1.0" encoding="utf-8"?>
<!-- Generator: Adobe Illustrator 25.0.0, SVG Export Plug-In . SVG Version: 6.00 Build 0)  -->
<svg version="1.1" xmlns="http://www.w3.org/2000/svg" xmlns:xlink="http://www.w3.org/1999/xlink" x="0px" y="0px"
	 viewBox="0 0 461.6 149.1" style="enable-background:new 0 0 461.6 149.1;" xml:space="preserve">
<style type="text/css">
	.st0{display:none;}
	.st1{display:inline;fill:#00293F;}
	.st2{fill:#00AEEF;}
	.st3{fill:#005B96;}
	.st4{fill:#FFFFFF;}
	.st5{font-family:'Merriweather-Regular';}
	.st6{font-size:73.1107px;}
</style>
<g id="Layer_2" class="st0">
	<rect x="-77.3" y="-111.4" class="st1" width="629.1" height="366.1"/>
</g>
<g id="Layer_1">
	<g>
		<path class="st2" d="M159.9,11.7c-1-3.1-9.4,2-12.9,5.3l-2.6,2.1l-20.3,4.4c-1.6,0.3-3.1,1.2-4.2,2.3c-0.4,0.5-0.7,0.8-0.3,0.9
			c2.5,0.4,13.9-0.5,17.3-0.9l-15.6,14.4l-6.2-2.5l-3.2,1.1l6.4,5l0.4,3c0,0,16.4-12.2,21.2-15.6c-1.2,2.9-4.1,9.1-4.4,11.1
			c0,0.3,0.4,0.4,0.9,0.4c1.7-0.1,3.2-1.1,4-2.6l8.5-15.3C158.2,18.6,160.4,13.5,159.9,11.7z"/>
		<path class="st3" d="M40.5,92.8c0-0.2,0-0.4,0-0.7c0-20.6,16.7-37.2,37.2-37.2c6.5,0,12.7,1.7,18,4.6c-6.7-4.9-14.9-7.7-23.8-7.7
			c-22,0-39.9,17.7-40.3,39.6C34.4,92.1,37.4,92.5,40.5,92.8"/>
		<path class="st2" d="M56.8,123c-1.4-0.1-2.7-0.2-4-0.2c0,0-3.4,0.6-5.8,1c5.5,4.4,12.2,7.3,19.5,8.3h11c6.8-0.9,13-3.5,18.3-7.4
			c-5.3,3-11.5,4.6-18,4.6C70,129.4,62.8,127,56.8,123z"/>
		<path class="st2" d="M49.8,116.7c-4.2-4.8-7.2-10.6-8.5-17c-3.2-0.2-6.2-0.5-9.1-1.1c0.9,5.6,3,10.8,6,15.4l3.5,1.1
			C44.1,115.9,46.8,116.5,49.8,116.7z"/>
		<path class="st2" d="M79.9,119.6c20.4-7.4,35-21.2,36.8-33.4c-4.4,10.8-17.7,22-35.5,28.5c-15.1,5.5-30,6.3-40.5,3
			c2,2.4,4.3,4.6,6.8,6.5C57,125.3,68.4,123.8,79.9,119.6"/>
		<path class="st4" d="M83.8,89.5C49.6,102,16.3,96.9,9.5,78.2c-1.2-3.4-1.5-7-1-10.7c-2.5,6-2.9,12-0.9,17.4
			c6.8,18.7,40.1,23.8,74.3,11.3c28.1-10.2,48-29,50.6-45.8C126.5,65.3,108.2,80.6,83.8,89.5"/>
	</g>
	<text transform="matrix(0.9848 0 -0.1736 0.9848 148.5707 112.4128)" class="st4 st5 st6">PhilPort</text>
	<g>
		<path class="st2" d="M-148.2,36.2c-1-3.1-9.4,2-12.9,5.3l-2.6,2.1L-184,48c-1.6,0.3-3.1,1.2-4.2,2.3c-0.4,0.5-0.7,0.8-0.3,0.9
			c2.5,0.4,13.9-0.5,17.3-0.9l-15.6,14.4l-6.2-2.5l-3.2,1.1l6.4,5l0.4,3c0,0,16.4-12.2,21.2-15.6c-1.2,2.9-4.1,9.1-4.4,11.1
			c0,0.3,0.4,0.4,0.9,0.4c1.7-0.1,3.2-1.1,4-2.6l8.5-15.3C-149.9,43.1-147.7,38-148.2,36.2z"/>
		<path class="st3" d="M-267.6,117.3c0-0.2,0-0.4,0-0.7c0-20.6,16.7-37.2,37.2-37.2c6.5,0,12.7,1.7,18,4.6
			c-6.7-4.9-14.9-7.7-23.8-7.7c-22,0-39.9,17.7-40.3,39.6C-273.7,116.6-270.7,117-267.6,117.3"/>
		<path class="st3" d="M-251.3,147.5c-1.4-0.1-2.7-0.2-4-0.2c0,0-3.4,0.6-5.8,1c5.5,4.4,12.2,7.3,19.5,8.3h11
			c6.8-0.9,13-3.5,18.3-7.4c-5.3,3-11.5,4.6-18,4.6C-238.1,153.9-245.3,151.5-251.3,147.5z"/>
		<path class="st3" d="M-258.3,141.2c-4.2-4.8-7.2-10.6-8.5-17c-3.2-0.2-6.2-0.5-9.1-1.1c0.9,5.6,3,10.8,6,15.4l3.5,1.1
			C-264,140.4-261.3,141-258.3,141.2z"/>
		<path class="st3" d="M-228.2,144.1c20.4-7.4,35-21.2,36.8-33.4c-4.4,10.8-17.7,22-35.5,28.5c-15.1,5.5-30,6.3-40.5,3
			c2,2.4,4.3,4.6,6.8,6.5C-251.1,149.8-239.7,148.3-228.2,144.1"/>
		<path class="st2" d="M-224.3,114c-34.2,12.5-67.5,7.4-74.3-11.3c-1.2-3.4-1.5-7-1-10.7c-2.5,6-2.9,12-0.9,17.4
			c6.8,18.7,40.1,23.8,74.3,11.3c28.1-10.2,48-29,50.6-45.8C-181.6,89.8-199.9,105.1-224.3,114"/>
	</g>
</g>
</svg>
