<?xml version="1.0" encoding="utf-8"?>
<!-- Generator: Adobe Illustrator 25.0.0, SVG Export Plug-In . SVG Version: 6.00 Build 0)  -->
<svg version="1.1" xmlns="http://www.w3.org/2000/svg" xmlns:xlink="http://www.w3.org/1999/xlink" x="0px" y="0px"
	 viewBox="0 0 325.9 330.9" style="enable-background:new 0 0 325.9 330.9;" xml:space="preserve">
<style type="text/css">
	.st0{display:none;}
	.st1{display:inline;fill:#FF0B0B;stroke:#FFFFFF;stroke-miterlimit:10;}
	.st2{display:inline;fill:#00FFFF;}
	.st3{display:inline;fill:#00293F;}
	.st4{fill:#00AEEF;}
	.st5{fill:#005B96;}
	.st6{fill:#FFFFFF;}
	.st7{font-family:'Merriweather-Bold';}
	.st8{font-size:40.5527px;}
</style>
<g id="Layer_2" class="st0">
	<rect y="-4" class="st1" width="325.3" height="334.9"/>
</g>
<g id="Layer_1">
	<g id="Layer_2_1_" class="st0">
		<rect x="-32.6" y="-29.6" class="st2" width="383.5" height="332.7"/>
	</g>
	<g id="Layer_1_1_">
		<g id="Layer_2_2_" class="st0">
			<rect x="-40.1" y="-86.7" class="st3" width="629.1" height="366.1"/>
		</g>
		<g>
			<path class="st4" d="M325.3,2c-2.1-6.5-19.8,4.2-27.1,11.1l-5.5,4.4L250,26.8c-3.4,0.6-6.5,2.5-8.8,4.8c-0.8,1.1-1.5,1.7-0.6,1.9
				c5.3,0.8,29.2-1.1,36.4-1.9L244.1,62l-13-5.3l-6.7,2.3l13.5,10.5l0.8,6.3c0,0,34.5-25.7,44.6-32.8c-2.5,6.1-8.6,19.1-9.3,23.3
				c0,0.6,0.8,0.8,1.9,0.8c3.6-0.2,6.7-2.3,8.4-5.5l17.9-32.2C321.7,16.5,326.3,5.8,325.3,2z"/>
			<path class="st5" d="M74.2,172.6c0-0.4,0-0.8,0-1.5c0-43.3,35.1-78.2,78.2-78.2c13.7,0,26.7,3.6,37.9,9.7
				c-14.1-10.3-31.3-16.2-50.1-16.2c-46.3,0-83.9,37.2-84.8,83.3C61.4,171.1,67.7,172,74.2,172.6"/>
			<path class="st4" d="M108.5,236.1c-2.9-0.2-5.7-0.4-8.4-0.4c0,0-7.2,1.3-12.2,2.1c11.6,9.3,25.7,15.4,41,17.5H152
				c14.3-1.9,27.3-7.4,38.5-15.6c-11.1,6.3-24.2,9.7-37.9,9.7C136.2,249.6,121.1,244.5,108.5,236.1z"/>
			<path class="st4" d="M93.7,222.8c-8.8-10.1-15.1-22.3-17.9-35.8c-6.7-0.4-13-1.1-19.1-2.3c1.9,11.8,6.3,22.7,12.6,32.4l7.4,2.3
				C81.8,221.2,87.4,222.4,93.7,222.8z"/>
			<path class="st4" d="M157,228.9c42.9-15.6,73.6-44.6,77.4-70.2c-9.3,22.7-37.2,46.3-74.7,59.9c-31.8,11.6-63.1,13.2-85.2,6.3
				c4.2,5,9,9.7,14.3,13.7C108.9,240.9,132.9,237.8,157,228.9"/>
			<path class="st6" d="M165.2,165.6C93.3,191.9,23.3,181.2,9,141.9c-2.5-7.2-3.2-14.7-2.1-22.5C1.6,132,0.8,144.6,5,156
				c14.3,39.3,84.3,50.1,156.3,23.8c59.1-21.5,100.9-61,106.4-96.3C255.1,114.7,216.6,146.9,165.2,165.6"/>
		</g>
	</g>
	<text transform="matrix(0.9306 0 0 1 81.2794 320.8597)" class="st5 st7 st8">PhilPort</text>
</g>
</svg>
